<svg xmlns="http://www.w3.org/2000/svg" viewBox="0 0 192 192" role="img" aria-label="Python Analyst icon">
  <rect width="192" height="192" rx="36" fill="#12386f"/>
  <rect x="24" y="24" width="144" height="144" rx="28" fill="#0b2550" stroke="#68c5ff" stroke-width="4"/>
  <path d="M58 74c0-14 12-26 26-26h24c12 0 22 10 22 22v12H92c-10 0-18 8-18 18v10H62c-2 0-4-2-4-4V74z" fill="#ffd166"/>
  <circle cx="106" cy="62" r="4" fill="#12386f"/>
  <path d="M134 118c0 14-12 26-26 26H84c-12 0-22-10-22-22v-12h38c10 0 18-8 18-18V82h12c2 0 4 2 4 4v32z" fill="#56d6a2"/>
  <circle cx="86" cy="130" r="4" fill="#12386f"/>
  <text x="96" y="172" text-anchor="middle" font-family="Arial, sans-serif" font-size="18" font-weight="700" fill="#ffffff">PY</text>
</svg>
